<?xml version="1.0" encoding="UTF-8"?>
<svg id="Livello_1" data-name="Livello 1" xmlns="http://www.w3.org/2000/svg" viewBox="0 0 158.37 49.36">
  <defs>
    <style>
      .cls-1 {
        fill: #F5F7E5;
      }
    </style>
  </defs>
  <path id="barcode" class="cls-1" d="M0,0H8.23V49.36H0V0ZM9.26,0h1.03V49.36h-1.03V0Zm2.06,0h1.03V49.36h-1.03V0Zm2.06,0h1.03V49.36h-1.03V0Zm4.11,0h5.14V6.17h-5.14V0Zm6.17,0h1.03V9.26h-1.03V0Zm2.06,0h1.03V6.17h-1.03V0Zm3.09,0h5.14V3.09h-5.14V0Zm6.17,0h2.06V3.09h-2.06V0Zm3.09,0h1.03V3.09h-1.03V0Zm3.09,0h3.09V3.09h-3.09V0Zm5.14,0h4.11V3.09h-4.11V0Zm6.17,0h5.14V3.09h-5.14V0Zm7.2,0h3.09V3.09h-3.09V0Zm4.11,0h1.03V6.17h-1.03V0Zm2.06,0h3.09V3.09h-3.09V0Zm4.11,0h1.03V3.09h-1.03V0Zm2.06,0h1.03V3.09h-1.03V0Zm2.06,0h1.03V3.09h-1.03V0Zm7.2,0h1.03V3.09h-1.03V0Zm6.17,0h1.03V3.09h-1.03V0Zm2.06,0h1.03V3.09h-1.03V0Zm6.17,0h2.06V3.09h-2.06V0Zm5.14,0h2.06V3.09h-2.06V0Zm4.11,0h4.11V3.09h-4.11V0Zm5.14,0h2.06V3.09h-2.06V0Zm4.11,0h1.03V3.09h-1.03V0Zm4.11,0h3.09V3.09h-3.09V0Zm4.11,0h4.11V6.17h-4.11V0Zm5.14,0h1.03V9.26h-1.03V0Zm2.06,0h1.03V6.17h-1.03V0Zm3.09,0h4.11V3.09h-4.11V0Zm7.2,0h7.2V49.36h-7.2V0Zm8.23,0h1.03V49.36h-1.03V0Zm4.11,0h1.03V49.36h-1.03V0Zm2.06,0h1.03V49.36h-1.03V0Zm3.09,0h1.03V49.36h-1.03V0ZM30.85,3.09h2.06v3.09h-2.06V3.09Zm4.11,0h3.09v3.09h-3.09V3.09Zm8.23,0h1.03v6.17h-1.03V3.09Zm2.06,0h2.06v3.09h-2.06V3.09Zm5.14,0h1.03v3.09h-1.03V3.09Zm2.06,0h4.11v3.09h-4.11V3.09Zm5.14,0h1.03v3.09h-1.03V3.09Zm8.23,0h1.03v3.09h-1.03V3.09Zm4.11,0h6.17v3.09h-6.17V3.09Zm7.2,0h3.09v3.09h-3.09V3.09Zm5.14,0h1.03v3.09h-1.03V3.09Zm3.09,0h1.03v3.09h-1.03V3.09Zm2.06,0h4.11v3.09h-4.11V3.09Zm6.17,0h2.06v3.09h-2.06V3.09Zm4.11,0h2.06v3.09h-2.06V3.09Zm3.09,0h1.03v3.09h-1.03V3.09Zm4.11,0h2.06v3.09h-2.06V3.09Zm7.2,0h1.03v3.09h-1.03V3.09Zm2.06,0h3.09v3.09h-3.09V3.09Zm4.11,0h1.03v3.09h-1.03V3.09Zm15.43,0h1.03v3.09h-1.03V3.09ZM17.48,6.17h3.09V15.43h-3.09V6.17Zm4.11,0h1.03V15.43h-1.03V6.17Zm5.14,0h6.17v3.09h-6.17v-3.09Zm8.23,0h1.03v6.17h-1.03V6.17Zm4.11,0h2.06v3.09h-2.06v-3.09Zm8.23,0h3.09v3.09h-3.09v-3.09Zm5.14,0h2.06v3.09h-2.06v-3.09Zm3.09,0h6.17v3.09h-6.17v-3.09Zm7.2,0h2.06v3.09h-2.06v-3.09Zm4.11,0h1.03v3.09h-1.03v-3.09Zm3.09,0h1.03v3.09h-1.03v-3.09Zm5.14,0h1.03v3.09h-1.03v-3.09Zm4.11,0h1.03v3.09h-1.03v-3.09Zm2.06,0h4.11v3.09h-4.11v-3.09Zm6.17,0h1.03v3.09h-1.03v-3.09Zm6.17,0h1.03V15.43h-1.03V6.17Zm3.09,0h1.03v3.09h-1.03v-3.09Zm3.09,0h4.11v3.09h-4.11v-3.09Zm5.14,0h6.17v3.09h-6.17v-3.09Zm8.23,0h2.06v3.09h-2.06v-3.09Zm3.09,0h3.09v3.09h-3.09v-3.09Zm4.11,0h1.03v3.09h-1.03v-3.09Zm2.06,0h2.06v3.09h-2.06v-3.09Zm3.09,0h1.03v3.09h-1.03v-3.09Zm7.2,0h5.14v3.09h-5.14v-3.09ZM24.68,9.26h1.03v3.09h-1.03v-3.09Zm2.06,0h3.09v3.09h-3.09v-3.09Zm10.28,0h1.03v3.09h-1.03v-3.09Zm6.17,0h2.06v3.09h-2.06v-3.09Zm5.14,0h2.06v3.09h-2.06v-3.09Zm4.11,0h1.03v3.09h-1.03v-3.09Zm6.17,0h1.03v3.09h-1.03v-3.09Zm2.06,0h1.03v3.09h-1.03v-3.09Zm4.11,0h1.03v6.17h-1.03v-6.17Zm5.14,0h4.11v3.09h-4.11v-3.09Zm5.14,0h3.09v3.09h-3.09v-3.09Zm4.11,0h2.06v3.09h-2.06v-3.09Zm3.09,0h3.09v3.09h-3.09v-3.09Zm5.14,0h3.09v3.09h-3.09v-3.09Zm4.11,0h1.03v3.09h-1.03v-3.09Zm4.11,0h3.09v3.09h-3.09v-3.09Zm9.26,0h3.09v6.17h-3.09v-6.17Zm4.11,0h1.03v3.09h-1.03v-3.09Zm2.06,0h1.03v3.09h-1.03v-3.09Zm2.06,0h3.09v3.09h-3.09v-3.09Zm9.26,0h5.14v3.09h-5.14v-3.09Zm6.17,0h1.03v3.09h-1.03v-3.09Zm2.06,0h6.17v3.09h-6.17v-3.09Zm7.2,0h1.03v3.09h-1.03v-3.09ZM23.65,12.34h3.09v3.09h-3.09v-3.09Zm8.23,0h2.06v6.17h-2.06v-6.17Zm3.09,0h3.09v3.09h-3.09v-3.09Zm4.11,0h1.03v3.09h-1.03v-3.09Zm2.06,0h5.14v3.09h-5.14v-3.09Zm6.17,0h4.11v3.09h-4.11v-3.09Zm5.14,0h4.11v3.09h-4.11v-3.09Zm6.17,0h2.06v3.09h-2.06v-3.09Zm3.09,0h2.06v3.09h-2.06v-3.09Zm8.23,0h2.06v3.09h-2.06v-3.09Zm7.2,0h1.03v3.09h-1.03v-3.09Zm2.06,0h3.09v3.09h-3.09v-3.09Zm5.14,0h1.03v3.09h-1.03v-3.09Zm3.09,0h1.03v3.09h-1.03v-3.09Zm2.06,0h2.06v3.09h-2.06v-3.09Zm6.17,0h6.17v3.09h-6.17v-3.09Zm17.48,0h2.06v3.09h-2.06v-3.09Zm3.09,0h3.09v3.09h-3.09v-3.09Zm4.11,0h1.03v6.17h-1.03v-6.17Zm2.06,0h4.11v3.09h-4.11v-3.09Zm5.14,0h1.03v3.09h-1.03v-3.09Zm2.06,0h3.09v3.09h-3.09v-3.09Zm6.17,0h3.09v3.09h-3.09v-3.09ZM17.48,15.43h5.14v3.09h-5.14v-3.09Zm6.17,0h1.03v3.09h-1.03v-3.09Zm2.06,0h4.11v3.09h-4.11v-3.09Zm9.26,0h4.11v3.09h-4.11v-3.09Zm5.14,0h2.06v6.17h-2.06v-6.17Zm4.11,0h5.14v3.09h-5.14v-3.09Zm6.17,0h1.03v3.09h-1.03v-3.09Zm2.06,0h5.14v3.09h-5.14v-3.09Zm6.17,0h1.03v3.09h-1.03v-3.09Zm3.09,0h3.09v3.09h-3.09v-3.09Zm5.14,0h1.03v3.09h-1.03v-3.09Zm3.09,0h1.03v3.09h-1.03v-3.09Zm2.06,0h4.11v3.09h-4.11v-3.09Zm9.26,0h1.03v3.09h-1.03v-3.09Zm4.11,0h1.03v3.09h-1.03v-3.09Zm2.06,0h2.06v3.09h-2.06v-3.09Zm3.09,0h2.06v3.09h-2.06v-3.09Zm5.14,0h1.03v3.09h-1.03v-3.09Zm3.09,0h4.11v3.09h-4.11v-3.09Zm6.17,0h6.17v3.09h-6.17v-3.09Zm8.23,0h1.03v6.17h-1.03v-6.17Zm2.06,0h2.06v3.09h-2.06v-3.09Zm7.2,0h3.09v3.09h-3.09v-3.09Zm4.11,0h1.03v3.09h-1.03v-3.09Zm2.06,0h5.14v3.09h-5.14v-3.09Zm7.2,0h1.03v3.09h-1.03v-3.09Zm-118.26,3.09h1.03v3.09h-1.03v-3.09Zm2.06,0h1.03v3.09h-1.03v-3.09Zm3.09,0h3.09v3.09h-3.09v-3.09Zm6.17,0h3.09v3.09h-3.09v-3.09Zm6.17,0h2.06v3.09h-2.06v-3.09Zm9.26,0h1.03v3.09h-1.03v-3.09Zm2.06,0h1.03v3.09h-1.03v-3.09Zm6.17,0h1.03v6.17h-1.03v-6.17Zm2.06,0h1.03v3.09h-1.03v-3.09Zm6.17,0h1.03v3.09h-1.03v-3.09Zm4.11,0h1.03v3.09h-1.03v-3.09Zm5.14,0h2.06v3.09h-2.06v-3.09Zm3.09,0h1.03v3.09h-1.03v-3.09Zm6.17,0h1.03v3.09h-1.03v-3.09Zm5.14,0h2.06v3.09h-2.06v-3.09Zm3.09,0h1.03v12.34h-1.03v-12.34Zm2.06,0h1.03v3.09h-1.03v-3.09Zm5.14,0h2.06v3.09h-2.06v-3.09Zm4.11,0h2.06v3.09h-2.06v-3.09Zm6.17,0h4.11v3.09h-4.11v-3.09Zm5.14,0h2.06v3.09h-2.06v-3.09Zm7.2,0h3.09v3.09h-3.09v-3.09Zm5.14,0h2.06v3.09h-2.06v-3.09Zm3.09,0h1.03v3.09h-1.03v-3.09Zm3.09,0h3.09v3.09h-3.09v-3.09Zm5.14,0h4.11v3.09h-4.11v-3.09Zm-116.21,3.09h4.11v3.09h-4.11v-3.09Zm5.14,0h1.03v3.09h-1.03v-3.09Zm3.09,0h1.03v3.09h-1.03v-3.09Zm3.09,0h1.03v3.09h-1.03v-3.09Zm6.17,0h4.11v6.17h-4.11v-6.17Zm6.17,0h2.06v3.09h-2.06v-3.09Zm4.11,0h2.06v3.09h-2.06v-3.09Zm3.09,0h1.03v3.09h-1.03v-3.09Zm8.23,0h1.03v3.09h-1.03v-3.09Zm6.17,0h4.11v3.09h-4.11v-3.09Zm5.14,0h1.03v3.09h-1.03v-3.09Zm2.06,0h3.09v3.09h-3.09v-3.09Zm7.2,0h1.03v3.09h-1.03v-3.09Zm4.11,0h2.06v3.09h-2.06v-3.09Zm4.11,0h1.03v3.09h-1.03v-3.09Zm5.14,0h2.06v3.09h-2.06v-3.09Zm5.14,0h5.14v3.09h-5.14v-3.09Zm7.2,0h1.03v3.09h-1.03v-3.09Zm2.06,0h1.03v3.09h-1.03v-3.09Zm2.06,0h3.09v3.09h-3.09v-3.09Zm4.11,0h6.17v3.09h-6.17v-3.09Zm7.2,0h1.03v6.17h-1.03v-6.17Zm4.11,0h1.03v3.09h-1.03v-3.09Zm2.06,0h1.03v3.09h-1.03v-3.09Zm2.06,0h6.17v3.09h-6.17v-3.09Zm9.26,0h3.09v3.09h-3.09v-3.09Zm-118.26,3.09h2.06v6.17h-2.06v-6.17Zm3.09,0h1.03v6.17h-1.03v-6.17Zm3.09,0h2.06v3.09h-2.06v-3.09Zm4.11,0h6.17v3.09h-6.17v-3.09Zm13.37,0h1.03v6.17h-1.03v-6.17Zm3.09,0h4.11v3.09h-4.11v-3.09Zm6.17,0h1.03v3.09h-1.03v-3.09Zm2.06,0h2.06v3.09h-2.06v-3.09Zm4.11,0h3.09v3.09h-3.09v-3.09Zm5.14,0h1.03v3.09h-1.03v-3.09Zm4.11,0h3.09v3.09h-3.09v-3.09Zm4.11,0h1.03v6.17h-1.03v-6.17Zm6.17,0h2.06v3.09h-2.06v-3.09Zm3.09,0h1.03v3.09h-1.03v-3.09Zm4.11,0h3.09v3.09h-3.09v-3.09Zm9.26,0h1.03v3.09h-1.03v-3.09Zm2.06,0h2.06v3.09h-2.06v-3.09Zm4.11,0h5.14v3.09h-5.14v-3.09Zm6.17,0h2.06v3.09h-2.06v-3.09Zm5.14,0h5.14v3.09h-5.14v-3.09Zm6.17,0h1.03v3.09h-1.03v-3.09Zm6.17,0h6.17v3.09h-6.17v-3.09Zm7.2,0h1.03v3.09h-1.03v-3.09Zm3.09,0h3.09v6.17h-3.09v-6.17Zm4.11,0h2.06v3.09h-2.06v-3.09Zm-112.09,3.09h3.09v6.17h-3.09v-6.17Zm4.11,0h4.11v3.09h-4.11v-3.09Zm6.17,0h1.03v3.09h-1.03v-3.09Zm8.23,0h2.06v3.09h-2.06v-3.09Zm6.17,0h2.06v3.09h-2.06v-3.09Zm3.09,0h1.03v3.09h-1.03v-3.09Zm2.06,0h3.09v3.09h-3.09v-3.09Zm5.14,0h3.09v3.09h-3.09v-3.09Zm4.11,0h1.03v3.09h-1.03v-3.09Zm11.31,0h1.03v3.09h-1.03v-3.09Zm5.14,0h1.03v3.09h-1.03v-3.09Zm5.14,0h1.03v3.09h-1.03v-3.09Zm8.23,0h1.03v3.09h-1.03v-3.09Zm2.06,0h2.06v3.09h-2.06v-3.09Zm4.11,0h2.06v3.09h-2.06v-3.09Zm5.14,0h1.03v3.09h-1.03v-3.09Zm2.06,0h2.06v3.09h-2.06v-3.09Zm3.09,0h4.11v3.09h-4.11v-3.09Zm7.2,0h3.09v3.09h-3.09v-3.09Zm5.14,0h1.03v3.09h-1.03v-3.09Zm2.06,0h1.03v3.09h-1.03v-3.09Zm4.11,0h3.09v3.09h-3.09v-3.09Zm-111.06,3.09h3.09v3.09h-3.09v-3.09Zm4.11,0h1.03v3.09h-1.03v-3.09Zm10.28,0h2.06v3.09h-2.06v-3.09Zm3.09,0h2.06v3.09h-2.06v-3.09Zm4.11,0h1.03v3.09h-1.03v-3.09Zm2.06,0h5.14v3.09h-5.14v-3.09Zm6.17,0h3.09v3.09h-3.09v-3.09Zm5.14,0h3.09v3.09h-3.09v-3.09Zm4.11,0h3.09v3.09h-3.09v-3.09Zm4.11,0h4.11v3.09h-4.11v-3.09Zm5.14,0h1.03v3.09h-1.03v-3.09Zm4.11,0h5.14v3.09h-5.14v-3.09Zm6.17,0h1.03v3.09h-1.03v-3.09Zm2.06,0h2.06v3.09h-2.06v-3.09Zm4.11,0h3.09v3.09h-3.09v-3.09Zm5.14,0h3.09v3.09h-3.09v-3.09Zm8.23,0h1.03v3.09h-1.03v-3.09Zm2.06,0h2.06v3.09h-2.06v-3.09Zm5.14,0h1.03v3.09h-1.03v-3.09Zm2.06,0h4.11v3.09h-4.11v-3.09Zm5.14,0h1.03v3.09h-1.03v-3.09Zm3.09,0h1.03v3.09h-1.03v-3.09Zm5.14,0h1.03v3.09h-1.03v-3.09Zm4.11,0h4.11v3.09h-4.11v-3.09Zm5.14,0h1.03v3.09h-1.03v-3.09Zm3.09,0h3.09v3.09h-3.09v-3.09Zm5.14,0h3.09v3.09h-3.09v-3.09Zm-118.26,3.09h1.03v3.09h-1.03v-3.09Zm2.06,0h1.03v3.09h-1.03v-3.09Zm4.11,0h1.03v3.09h-1.03v-3.09Zm6.17,0h4.11v3.09h-4.11v-3.09Zm5.14,0h1.03v9.26h-1.03v-9.26Zm3.09,0h3.09v3.09h-3.09v-3.09Zm6.17,0h2.06v3.09h-2.06v-3.09Zm4.11,0h3.09v3.09h-3.09v-3.09Zm4.11,0h1.03v9.26h-1.03v-9.26Zm3.09,0h2.06v3.09h-2.06v-3.09Zm3.09,0h2.06v3.09h-2.06v-3.09Zm4.11,0h4.11v3.09h-4.11v-3.09Zm7.2,0h1.03v6.17h-1.03v-6.17Zm2.06,0h4.11v3.09h-4.11v-3.09Zm7.2,0h1.03v3.09h-1.03v-3.09Zm3.09,0h1.03v3.09h-1.03v-3.09Zm5.14,0h1.03v15.43h-1.03v-15.43Zm2.06,0h1.03v3.09h-1.03v-3.09Zm2.06,0h3.09v3.09h-3.09v-3.09Zm6.17,0h6.17v3.09h-6.17v-3.09Zm7.2,0h1.03v3.09h-1.03v-3.09Zm4.11,0h1.03v3.09h-1.03v-3.09Zm3.09,0h1.03v3.09h-1.03v-3.09Zm2.06,0h4.11v3.09h-4.11v-3.09Zm8.23,0h1.03v6.17h-1.03v-6.17Zm2.06,0h1.03v6.17h-1.03v-6.17Zm4.11,0h2.06v3.09h-2.06v-3.09Zm4.11,0h5.14v3.09h-5.14v-3.09Zm-115.18,3.09h2.06v3.09h-2.06v-3.09Zm3.09,0h1.03v3.09h-1.03v-3.09Zm6.17,0h1.03v6.17h-1.03v-6.17Zm2.06,0h2.06v3.09h-2.06v-3.09Zm11.31,0h2.06v3.09h-2.06v-3.09Zm5.14,0h2.06v3.09h-2.06v-3.09Zm4.11,0h1.03v6.17h-1.03v-6.17Zm8.23,0h2.06v3.09h-2.06v-3.09Zm5.14,0h2.06v3.09h-2.06v-3.09Zm4.11,0h1.03v3.09h-1.03v-3.09Zm8.23,0h2.06v3.09h-2.06v-3.09Zm5.14,0h2.06v3.09h-2.06v-3.09Zm4.11,0h1.03v3.09h-1.03v-3.09Zm8.23,0h2.06v3.09h-2.06v-3.09Zm5.14,0h2.06v3.09h-2.06v-3.09Zm4.11,0h1.03v3.09h-1.03v-3.09Zm3.09,0h2.06v6.17h-2.06v-6.17Zm5.14,0h2.06v3.09h-2.06v-3.09Zm4.11,0h2.06v3.09h-2.06v-3.09Zm4.11,0h2.06v3.09h-2.06v-3.09Zm12.34,0h1.03v3.09h-1.03v-3.09Zm2.06,0h1.03v6.17h-1.03v-6.17Zm-115.18,3.09h4.11v3.09h-4.11v-3.09Zm5.14,0h1.03v3.09h-1.03v-3.09Zm10.28,0h1.03v3.09h-1.03v-3.09Zm7.2,0h1.03v3.09h-1.03v-3.09Zm4.11,0h4.11v3.09h-4.11v-3.09Zm10.28,0h1.03v3.09h-1.03v-3.09Zm3.09,0h6.17v3.09h-6.17v-3.09Zm8.23,0h3.09v3.09h-3.09v-3.09Zm4.11,0h5.14v3.09h-5.14v-3.09Zm6.17,0h1.03v3.09h-1.03v-3.09Zm3.09,0h1.03v3.09h-1.03v-3.09Zm2.06,0h2.06v3.09h-2.06v-3.09Zm9.26,0h4.11v3.09h-4.11v-3.09Zm6.17,0h1.03v3.09h-1.03v-3.09Zm2.06,0h4.11v3.09h-4.11v-3.09Zm9.26,0h6.17v3.09h-6.17v-3.09Zm7.2,0h1.03v6.17h-1.03v-6.17Zm2.06,0h3.09v3.09h-3.09v-3.09Zm5.14,0h5.14v3.09h-5.14v-3.09Zm6.17,0h1.03v3.09h-1.03v-3.09Zm7.2,0h2.06v3.09h-2.06v-3.09Zm-118.26,3.09h1.03v3.09h-1.03v-3.09Zm2.06,0h1.03v3.09h-1.03v-3.09Zm6.17,0h1.03v3.09h-1.03v-3.09Zm3.09,0h4.11v3.09h-4.11v-3.09Zm6.17,0h3.09v3.09h-3.09v-3.09Zm5.14,0h5.14v3.09h-5.14v-3.09Zm6.17,0h1.03v3.09h-1.03v-3.09Zm2.06,0h2.06v3.09h-2.06v-3.09Zm4.11,0h2.06v6.17h-2.06v-6.17Zm4.11,0h2.06v3.09h-2.06v-3.09Zm3.09,0h2.06v3.09h-2.06v-3.09Zm4.11,0h5.14v3.09h-5.14v-3.09Zm6.17,0h1.03v6.17h-1.03v-6.17Zm7.2,0h2.06v3.09h-2.06v-3.09Zm3.09,0h1.03v3.09h-1.03v-3.09Zm2.06,0h3.09v3.09h-3.09v-3.09Zm9.26,0h4.11v3.09h-4.11v-3.09Zm7.2,0h1.03v3.09h-1.03v-3.09Zm3.09,0h1.03v3.09h-1.03v-3.09Zm3.09,0h1.03v6.17h-1.03v-6.17Zm2.06,0h3.09v3.09h-3.09v-3.09Zm12.34,0h2.06v3.09h-2.06v-3.09Zm3.09,0h1.03v6.17h-1.03v-6.17Zm3.09,0h1.03v6.17h-1.03v-6.17Zm2.06,0h1.03v6.17h-1.03v-6.17Zm2.06,0h4.11v3.09h-4.11v-3.09Zm-112.09,3.09h2.06v3.09h-2.06v-3.09Zm4.11,0h1.03v3.09h-1.03v-3.09Zm2.06,0h2.06v3.09h-2.06v-3.09Zm3.09,0h3.09v3.09h-3.09v-3.09Zm8.23,0h2.06v3.09h-2.06v-3.09Zm6.17,0h1.03v3.09h-1.03v-3.09Zm2.06,0h2.06v3.09h-2.06v-3.09Zm5.14,0h3.09v3.09h-3.09v-3.09Zm9.26,0h2.06v3.09h-2.06v-3.09Zm3.09,0h1.03v3.09h-1.03v-3.09Zm6.17,0h1.03v3.09h-1.03v-3.09Zm8.23,0h2.06v3.09h-2.06v-3.09Zm4.11,0h2.06v3.09h-2.06v-3.09Zm3.09,0h1.03v3.09h-1.03v-3.09Zm11.31,0h1.03v3.09h-1.03v-3.09Zm2.06,0h1.03v3.09h-1.03v-3.09Zm4.11,0h1.03v3.09h-1.03v-3.09Zm10.28,0h1.03v3.09h-1.03v-3.09Zm2.06,0h3.09v3.09h-3.09v-3.09Zm4.11,0h3.09v3.09h-3.09v-3.09Zm17.48,0h1.03v3.09h-1.03v-3.09Z"/>
</svg>